<?xml version="1.0" encoding="iso-8859-1"?>
<!-- Generator: Adobe Illustrator 19.0.0, SVG Export Plug-In . SVG Version: 6.00 Build 0)  -->
<svg version="1.1" id="Layer_1" xmlns="http://www.w3.org/2000/svg" xmlns:xlink="http://www.w3.org/1999/xlink" x="0px" y="0px"
	 viewBox="0 0 511.988 511.988" style="enable-background:new 0 0 511.988 511.988;" xml:space="preserve">
<g>
	<polygon style="fill:#AAB2BC;" points="256.006,419.646 234.662,419.646 234.662,400.898 253.693,381.883 245.334,365.18 
		245.334,341.32 266.662,341.32 266.662,360.133 279.654,386.086 256.006,409.74 	"/>
	<path style="fill:#AAB2BC;" d="M271.998,86.764c-1.68-0.984-3.523-1.422-5.336-1.422v-0.016c3.688-0.016,7.273-1.906,9.242-5.328
		c2.938-5.109,1.188-11.625-3.906-14.578c-1.68-0.968-3.523-1.421-5.336-1.421v-12h-21.328v12c-3.687,0.016-7.265,1.906-9.234,5.328
		c-2.953,5.109-1.203,11.625,3.906,14.578c1.672,0.969,3.515,1.422,5.328,1.422v0.016c-3.687,0-7.265,1.906-9.234,5.312
		c-2.953,5.109-1.203,11.641,3.906,14.578c1.672,0.969,3.515,1.422,5.328,1.422v13.781h21.328v-13.782
		c3.688,0,7.273-1.906,9.242-5.328C278.842,96.233,277.092,89.702,271.998,86.764z"/>
</g>
<g>
	<path style="fill:#434A54;" d="M458.118,465.943L458.118,465.943l-74.687-223.996l-20.218,6.75l74.593,223.777
		c0,0.016,0,0.031,0,0.047l0.062,0.172l0,0c1.406,4.234,5.406,7.297,10.124,7.297c5.875,0,10.656-4.781,10.656-10.672
		C458.649,468.146,458.462,467.006,458.118,465.943z"/>
	<path style="fill:#434A54;" d="M148.789,248.698l-20.25-6.75L53.886,465.943l0,0c-0.344,1.062-0.547,2.203-0.547,3.375
		c0,5.891,4.766,10.672,10.671,10.672c4.703,0,8.688-3.062,10.109-7.297l0,0l0.062-0.172c0-0.016,0.016-0.031,0.016-0.047
		L148.789,248.698z"/>
</g>
<g>
	<path style="fill:#F6BB42;" d="M341.34,149.325c0,5.891-4.781,10.671-10.688,10.671c-5.875,0-10.656-4.781-10.656-10.671
		s4.781-10.671,10.656-10.671C336.558,138.654,341.34,143.435,341.34,149.325z"/>
	<path style="fill:#F6BB42;" d="M380.745,172.09c5.093-2.953,11.624-1.203,14.562,3.906c2.969,5.094,1.219,11.625-3.875,14.562
		c-5.125,2.953-11.655,1.203-14.593-3.906C373.901,181.559,375.651,175.028,380.745,172.09z"/>
	<path style="fill:#F6BB42;" d="M353.433,152.559c2.938-5.094,9.469-6.844,14.562-3.891c5.094,2.938,6.844,9.468,3.906,14.562
		c-2.938,5.109-9.468,6.859-14.562,3.906C352.215,164.2,350.465,157.668,353.433,152.559z"/>
	<path style="fill:#F6BB42;" d="M170.664,149.325c0,5.891,4.781,10.671,10.672,10.671c5.89,0,10.671-4.781,10.671-10.671
		s-4.781-10.671-10.671-10.671C175.445,138.654,170.664,143.435,170.664,149.325z"/>
	<path style="fill:#F6BB42;" d="M117.337,202.652c-5.891,0-10.672,4.781-10.672,10.672s4.781,10.672,10.672,10.672
		c5.89,0,10.671-4.781,10.671-10.672S123.227,202.652,117.337,202.652z"/>
	<path style="fill:#F6BB42;" d="M394.65,202.652c-5.875,0-10.656,4.781-10.656,10.672s4.781,10.672,10.656,10.672
		c5.906,0,10.688-4.781,10.688-10.672S400.556,202.652,394.65,202.652z"/>
	<path style="fill:#F6BB42;" d="M131.243,172.09c-5.109-2.953-11.625-1.203-14.578,3.906c-2.938,5.094-1.188,11.625,3.906,14.562
		c5.093,2.953,11.625,1.203,14.578-3.906C138.102,181.559,136.352,175.028,131.243,172.09z"/>
	<path style="fill:#F6BB42;" d="M158.571,152.559c-2.938-5.094-9.469-6.844-14.562-3.891c-5.109,2.938-6.859,9.468-3.906,14.562
		c2.937,5.109,9.468,6.859,14.562,3.906C159.774,164.2,161.508,157.668,158.571,152.559z"/>
</g>
<path d="M394.65,213.324c0,5.891-4.781,10.672-10.656,10.672c-5.905,0-10.655-4.781-10.655-10.672s4.75-10.672,10.655-10.672
	C389.869,202.652,394.65,207.433,394.65,213.324z"/>
<path style="fill:#FFCE54;" d="M341.34,511.988H170.664c0,0-21.328-17.781-21.328-53.342c0-35.547,21.328-53.328,21.328-53.328
	H341.34c0,0,21.312,17.781,21.312,53.328C362.652,494.207,341.34,511.988,341.34,511.988z"/>
<g>
	<rect x="181.334" y="266.654" style="fill:#F6BB42;" width="21.327" height="138.67"/>
	<rect x="309.344" y="266.654" style="fill:#F6BB42;" width="21.312" height="138.67"/>
</g>
<path style="fill:#FFCE54;" d="M330.652,149.325H181.336c-35.359,0-63.999,28.656-63.999,63.999s28.64,63.999,63.999,63.999h149.316
	c35.343,0,63.998-28.656,63.998-63.999S365.995,149.325,330.652,149.325z"/>
<g>
	<circle style="fill:#F6BB42;" cx="181.334" cy="213.324" r="31.999"/>
	<path style="fill:#F6BB42;" d="M362.652,213.324c0,17.671-14.312,31.999-32,31.999c-17.656,0-31.999-14.328-31.999-31.999
		c0-17.672,14.343-31.999,31.999-31.999C348.34,181.325,362.652,195.652,362.652,213.324z"/>
</g>
<g>
	<rect x="224.004" y="106.654" style="fill:#CCD1D9;" width="63.991" height="255.99"/>
	<path style="fill:#CCD1D9;" d="M309.34,0H202.663c-5.89,0-10.656,4.773-10.656,10.664v42.663c0,5.891,4.766,10.672,10.656,10.672
		H309.34c5.875,0,10.656-4.781,10.656-10.672V10.664C319.996,4.774,315.215,0,309.34,0z M298.653,42.656h-85.334V21.328h85.334
		V42.656z"/>
</g>
<path style="fill:#F6BB42;" d="M149.336,458.646c0,3.766,0.25,7.312,0.672,10.672h211.988c0.406-3.359,0.656-6.906,0.656-10.672
	c0-3.75-0.25-7.297-0.656-10.656H150.008C149.586,451.349,149.336,454.896,149.336,458.646z"/>
<rect x="245.334" y="106.654" style="opacity:0.2;fill:#FFFFFF;enable-background:new    ;" width="21.328" height="255.99"/>
<g>
</g>
<g>
</g>
<g>
</g>
<g>
</g>
<g>
</g>
<g>
</g>
<g>
</g>
<g>
</g>
<g>
</g>
<g>
</g>
<g>
</g>
<g>
</g>
<g>
</g>
<g>
</g>
<g>
</g>
</svg>
